<svg xmlns="http://www.w3.org/2000/svg"
	 version="1.1"
	 xmlns:xlink="http://www.w3.org/1999/xlink"
	 width="512"
	 height="512"
	 x="0"
	 y="0"
	 viewBox="0 0 474 512"
	 class="">
	<path d="M423.907 405.37C393.664 437.182 354.942 454.705 314.873
	454.705C249.201 454.705 192.338 408.587 165.576
	341.922H347.993C363.811 341.922 376.635 329.097 376.635
	313.279C376.635 297.461 363.811 284.636 347.993
	284.636H151.02C149.894 275.272 149.279 265.72 149.279
	255.992C149.279 245.02 150.051 234.265 151.492
	223.768H347.993C363.811 223.768 376.635 210.944 376.635
	195.126C376.635 179.308 363.811 166.482 347.993
	166.482H167.1C194.435 101.769 250.39 57.2796 314.873
	57.2796C354.942 57.2796 393.664 74.8036 423.907
	106.612C434.795 118.071 452.914 118.541 464.397
	107.644C475.865 96.7417 476.319 78.612 465.433
	67.1478C424.272 23.8465 370.804 0 314.88
	0C219.39 0 137.765 69.3531 106.09
	166.49H29.3342C13.5162 166.49 0.691406 179.315 0.691406
	195.133C0.691406 210.951 13.5162 223.775 29.3342
	223.775H93.8164C92.6558 234.345 91.9921 245.079 91.9921
	255.999C91.9921 265.691 92.4984 275.231 93.4248
	284.643H29.3342C13.5162 284.643 0.691406 297.468 0.691406
	313.286C0.691406 329.104 13.5162 341.929 29.3342
	341.929H104.953C135.764 440.943 218.214 511.999 314.873
	511.999C370.803 511.999 424.257 488.146 465.418
	444.852C476.312 433.384 475.865 415.257 464.39
	404.356C452.93 393.454 434.795 393.909 423.907 405.37Z"
		  fill="black"/>
</svg>
