<svg xmlns="http://www.w3.org/2000/svg"
	 version="1.1"
	 xmlns:xlink="http://www.w3.org/1999/xlink"
	 width="268"
	 height="512"
	 x="0"
	 y="0"
	 viewBox="0 0 268 512"
	 class="">
	<path d="M4.64626 311.708C7.11526 303.335 10.1112 296.047 13.6292 289.859C17.1462 283.664 22.1823 277.622 28.7483 271.711C35.3063 265.804 41.2053 261.046 46.4363 257.43C51.6643 253.81 58.8453 249.763 67.9762 245.283C77.0992 240.805 84.3283 237.473 89.6493 235.281C94.9773 233.092 102.684 230.092 112.765 226.282C121.703 222.856 128.358 220.236 132.737 218.427C137.11 216.617 142.862 214.047 149.995 210.712C157.124 207.381 162.45 204.427 165.969 201.857C169.488 199.287 173.243 196.145 177.238 192.431C181.233 188.717 184.037 184.764 185.655 180.574C187.269 176.383 188.078 171.811 188.078 166.858C188.078 153.908 182.375 143.333 170.963 135.145C159.551 126.957 144.809 122.861 126.74 122.861C118.756 122.861 110.617 123.955 102.349 126.147C94.0813 128.34 86.9963 130.81 81.0993 133.574C75.1983 136.338 69.6373 139.386 64.4053 142.718C59.1743 146.052 55.4673 148.574 53.2783 150.288C51.0903 152.004 49.7043 153.146 49.1403 153.718C46.6643 155.622 44.1033 156.288 41.4403 155.718C38.5883 155.528 36.3992 154.002 34.8742 151.148L11.7622 109.433C9.48025 105.625 9.95226 102.005 13.1883 98.5747C14.3313 97.4319 15.7523 96.0999 17.4753 94.5747C19.1823 93.0496 22.8922 90.2885 28.6032 86.2865C34.3072 82.2876 40.3462 78.7159 46.7132 75.5725C53.0872 72.4322 61.3633 69.2398 71.5393 66.0034C81.7093 62.762 92.2202 60.5733 103.064 59.4315V9.14284C103.064 6.47785 103.918 4.28621 105.625 2.57092C107.335 0.859643 109.524 0 112.191 0H150.707C153.179 0 155.318 0.903676 157.125 2.71403C158.932 4.52438 159.835 6.66599 159.835 9.14284V60.5723C189.696 66.2846 213.945 79.0471 232.584 98.8569C251.221 118.668 260.543 141.712 260.543 168.001C260.543 175.81 259.731 183.238 258.114 190.282C256.5 197.333 254.501 203.666 252.123 209.285C249.747 214.907 246.37 220.429 241.996 225.859C237.622 231.287 233.484 235.955 229.586 239.857C225.686 243.759 220.598 247.808 214.324 251.998C208.046 256.191 202.673 259.574 198.202 262.144C193.731 264.706 187.788 267.668 180.373 270.994C172.956 274.329 167.105 276.85 162.826 278.568C158.546 280.281 152.698 282.664 145.278 285.706C135.009 289.706 127.4 292.802 122.456 294.994C117.507 297.185 111.233 300.233 103.621 304.138C96.0163 308.038 90.4553 311.611 86.9343 314.851C83.4163 318.09 80.2313 322.09 77.3763 326.85C74.5213 331.611 73.0922 336.659 73.0922 341.995C73.0922 357.043 78.9403 368.66 90.6403 376.844C102.335 385.037 115.891 389.132 131.294 389.132C138.324 389.132 145.367 388.375 152.402 386.851C177.127 381.893 200.234 369.988 221.725 351.132L222.296 350.56C224.009 348.471 226.292 347.612 229.142 347.995C232.185 348.376 234.374 349.519 235.704 351.428L265.089 389.997C267.943 393.806 267.75 397.71 264.518 401.71C263.565 402.853 261.902 404.572 259.525 406.853C257.143 409.144 252.721 412.71 246.258 417.576C239.793 422.436 232.755 427.001 225.146 431.293C217.538 435.577 207.887 439.813 196.188 444.005C184.489 448.19 172.367 451.141 159.814 452.855V502.855C159.814 505.335 158.91 507.476 157.104 509.287C155.296 511.099 153.158 512 150.686 512H112.17C109.503 512 107.314 511.144 105.605 509.432C103.895 507.72 103.044 505.528 103.044 502.856V452.856C72.7983 447.904 48.2163 434.903 29.2943 413.855C10.3713 392.806 0.90625 367.71 0.90625 338.569C0.91625 329.047 2.15026 320.094 4.64626 311.708Z"
		  fill="black"/>
</svg>
