<?xml version="1.0" standalone="no"?>
<svg version="1.1" xmlns="http://www.w3.org/2000/svg"
     baseProfile="full"
 width="520.000000pt" height="520.000000pt" viewBox="0 0 520.000000 520.000000"
 preserveAspectRatio="xMidYMid meet">

<g transform="translate(0.000000,520.000000) scale(0.100000,-0.100000)"
fill="#000000" stroke="none">
<path d="M2035 5194 c-16 -2 -72 -9 -124 -15 -254 -29 -558 -134 -799 -275
-375 -219 -660 -527 -852 -919 -293 -598 -293 -1295 0 -1890 310 -630 882
-1058 1580 -1182 124 -22 176 -26 355 -27 247 0 390 18 610 81 168 48 401 151
535 237 l55 35 540 -538 c324 -323 558 -549 585 -564 192 -109 438 -55 563
123 83 119 99 279 41 411 -25 59 -67 104 -575 614 l-548 550 41 65 c68 109
174 338 217 467 255 766 51 1626 -521 2194 -332 330 -719 529 -1183 609 -115
20 -442 35 -520 24z m443 -530 c700 -120 1253 -681 1356 -1377 23 -150 21
-377 -4 -523 -113 -662 -633 -1200 -1288 -1334 -452 -92 -923 6 -1292 268
-122 87 -308 272 -390 389 -313 448 -390 989 -213 1496 141 407 461 761 853
946 172 80 355 131 543 151 107 11 324 4 435 -16z"/>
</g>
</svg>
